<?xml version="1.0" encoding="utf-8"?>
<!-- Generator: Adobe Illustrator 21.0.2, SVG Export Plug-In . SVG Version: 6.00 Build 0)  -->
<svg version="1.1" id="Layer_1" xmlns="http://www.w3.org/2000/svg" xmlns:xlink="http://www.w3.org/1999/xlink" x="0px" y="0px"
	 viewBox="0 0 1920 1080" style="enable-background:new 0 0 1920 1080;" xml:space="preserve">
<style type="text/css">
	.st0{fill:#282828;}
	.st1{fill:none;}
	.st2{fill:none;stroke:#1E1E1E;stroke-miterlimit:10;}
	.st3{opacity:0.48;fill:#1E1E1E;}
	.st4{fill:none;stroke:#FFFFFF;stroke-miterlimit:10;}
	.st5{fill:#FFFFFF;}
	.st6{clip-path:url(#SVGID_6_);}
	.st7{clip-path:url(#SVGID_8_);fill:#444444;}
	.st8{fill:#25AAE1;}
	.st9{fill:#1C1C1C;}
	.st10{fill:#444444;}
	.st11{opacity:0.76;fill:#9E1919;}
	.st12{opacity:0.76;fill:#E0B12D;}
	.st13{fill:#F2F2F2;}
	.st14{fill:#141414;}
	.st15{fill:#A0A0A0;}
	.st16{opacity:0.76;fill:#F4C44D;}
	.st17{fill:#1E1E1E;}
	.st18{opacity:0.76;fill:none;stroke:#F4C44D;stroke-linecap:round;stroke-linejoin:round;stroke-miterlimit:10;}
	.st19{fill:#CCCCCC;}
	.st20{fill:none;stroke:#000000;stroke-miterlimit:10;}
	.st21{fill:none;stroke:#25AAE1;stroke-width:2;stroke-miterlimit:10;}
	.st22{fill:url(#SVGID_11_);}
	.st23{fill:url(#SVGID_12_);}
	.st24{fill:url(#SVGID_13_);}
	.st25{clip-path:url(#SVGID_15_);}
	.st26{clip-path:url(#SVGID_17_);fill:#444444;}
	.st27{fill:url(#SVGID_20_);}
	.st28{fill:url(#SVGID_21_);}
	.st29{fill:url(#SVGID_22_);}
	.st30{fill:none;stroke:#FFFFFF;stroke-linecap:round;stroke-linejoin:round;stroke-miterlimit:10;}
	.st31{clip-path:url(#SVGID_24_);}
	.st32{clip-path:url(#SVGID_26_);fill:#444444;}
	.st33{fill:url(#SVGID_29_);}
	.st34{fill:url(#SVGID_30_);}
	.st35{fill:url(#SVGID_31_);}
	.st36{clip-path:url(#SVGID_33_);}
	.st37{clip-path:url(#SVGID_35_);fill:#444444;}
	.st38{opacity:0.76;fill:#B21818;}
	.st39{opacity:0.76;fill:#E5BD5A;}
	.st40{fill:url(#SVGID_38_);}
	.st41{fill:url(#SVGID_39_);}
	.st42{fill:url(#SVGID_40_);}
	.st43{opacity:0.76;fill:#999999;}
	.st44{fill:#FFFEFD;}
	.st45{clip-path:url(#SVGID_42_);}
	.st46{clip-path:url(#SVGID_44_);fill:#444444;}
	.st47{fill:url(#SVGID_47_);}
	.st48{fill:url(#SVGID_48_);}
	.st49{fill:url(#SVGID_49_);}
	.st50{fill:url(#SVGID_50_);}
	.st51{fill:url(#SVGID_51_);}
	.st52{fill:url(#SVGID_52_);}
	.st53{fill:url(#SVGID_53_);}
	.st54{fill:url(#SVGID_54_);}
	.st55{fill:url(#SVGID_55_);}
	.st56{clip-path:url(#SVGID_58_);}
	.st57{clip-path:url(#SVGID_61_);fill:url(#SVGID_62_);}
	.st58{fill:url(#SVGID_65_);}
	.st59{fill:url(#SVGID_66_);}
	.st60{fill:url(#SVGID_67_);}
	.st61{fill:url(#SVGID_68_);}
	.st62{fill:url(#SVGID_69_);}
	.st63{fill:url(#SVGID_70_);}
	.st64{fill:url(#SVGID_71_);}
	.st65{fill:url(#SVGID_72_);}
	.st66{fill:url(#SVGID_73_);}
	.st67{fill:url(#SVGID_74_);}
	.st68{fill:url(#SVGID_75_);}
	.st69{fill:url(#SVGID_76_);}
	.st70{fill:url(#SVGID_77_);}
	.st71{fill:url(#SVGID_78_);}
	.st72{fill:url(#SVGID_83_);}
	.st73{fill:url(#SVGID_84_);}
	.st74{fill:url(#SVGID_85_);}
	.st75{fill:url(#SVGID_86_);}
	.st76{fill:url(#SVGID_87_);}
	.st77{fill:url(#SVGID_88_);}
	.st78{fill:url(#SVGID_89_);}
	.st79{fill:url(#SVGID_90_);}
	.st80{fill:url(#SVGID_91_);}
	.st81{fill:url(#SVGID_92_);}
	.st82{fill:url(#SVGID_93_);}
	.st83{fill:url(#SVGID_94_);}
	.st84{fill:url(#SVGID_95_);}
	.st85{fill:url(#SVGID_96_);}
</style>
<g>
	<linearGradient id="SVGID_2_" gradientUnits="userSpaceOnUse" x1="209.4714" y1="-210" x2="1709.4714" y2="1290">
		<stop  offset="0" style="stop-color:#333333"/>
		<stop  offset="1" style="stop-color:#1A1A1A"/>
	</linearGradient>
	<rect x="-0.5" style="fill:url(#SVGID_2_);" width="1920" height="1080"/>
	<polygon class="st2" points="1299.7,1064.7 1295.6,1080 1426,1080 1421.9,1064.7 	"/>
	<g>
		<linearGradient id="SVGID_4_" gradientUnits="userSpaceOnUse" x1="1444.204" y1="1556.2675" x2="-55.796" y2="56.2674">
			<stop  offset="0" style="stop-color:#333333"/>
			<stop  offset="1" style="stop-color:#1A1A1A"/>
		</linearGradient>
		<path style="fill:url(#SVGID_4_);" d="M816.2,838.9c-49.7,0-82,39.6-82,89.3s32.3,89.3,82,89.3s82-39.6,82-89.3
			S865.9,838.9,816.2,838.9z"/>
		<linearGradient id="SVGID_6_" gradientUnits="userSpaceOnUse" x1="1553.1863" y1="1447.2852" x2="53.1862" y2="-52.7148">
			<stop  offset="0" style="stop-color:#333333"/>
			<stop  offset="1" style="stop-color:#1A1A1A"/>
		</linearGradient>
		<polygon style="fill:url(#SVGID_6_);" points="1113.3,1060.3 1107.6,1080 1250.2,1080 1244.5,1060.3 		"/>
		<linearGradient id="SVGID_8_" gradientUnits="userSpaceOnUse" x1="1626.1281" y1="1374.3433" x2="126.1281" y2="-125.6567">
			<stop  offset="0" style="stop-color:#333333"/>
			<stop  offset="1" style="stop-color:#1A1A1A"/>
		</linearGradient>
		<polygon style="fill:url(#SVGID_8_);" points="1140,970.5 1217.8,970.5 1178.9,844.8 		"/>
		<linearGradient id="SVGID_10_" gradientUnits="userSpaceOnUse" x1="1223.3965" y1="1777.075" x2="-276.6035" y2="277.075">
			<stop  offset="0" style="stop-color:#333333"/>
			<stop  offset="1" style="stop-color:#1A1A1A"/>
		</linearGradient>
		<path style="fill:url(#SVGID_10_);" d="M477,969.9h-83v48.7h83c14.9,0,24.1-10.7,24.1-24.1C501.1,981.7,491.9,969.9,477,969.9z"/>
		<linearGradient id="SVGID_11_" gradientUnits="userSpaceOnUse" x1="1289.3079" y1="1711.1636" x2="-210.6921" y2="211.1635">
			<stop  offset="0" style="stop-color:#333333"/>
			<stop  offset="1" style="stop-color:#1A1A1A"/>
		</linearGradient>
		<path class="st22" d="M494.4,859.3c0-12.3-9.7-21.9-20.5-21.9H394v44.9h79.9C484.7,882.3,494.4,872.1,494.4,859.3z"/>
		<linearGradient id="SVGID_12_" gradientUnits="userSpaceOnUse" x1="1830.4036" y1="1170.0679" x2="330.4035" y2="-329.9321">
			<stop  offset="0" style="stop-color:#333333"/>
			<stop  offset="1" style="stop-color:#1A1A1A"/>
		</linearGradient>
		<path class="st23" d="M1555,839.5h-63V902h63c17.4,0,33.8-11.8,33.8-31.5C1588.8,851.2,1572.4,839.5,1555,839.5z"/>
		<linearGradient id="SVGID_13_" gradientUnits="userSpaceOnUse" x1="1763.3969" y1="1237.0745" x2="263.3969" y2="-262.9255">
			<stop  offset="0" style="stop-color:#333333"/>
			<stop  offset="1" style="stop-color:#1A1A1A"/>
		</linearGradient>
		<polygon class="st24" points="687.5,78.8 648.5,204.5 726.4,204.5 		"/>
		<linearGradient id="SVGID_15_" gradientUnits="userSpaceOnUse" x1="1975.0291" y1="1025.4424" x2="475.029" y2="-474.5576">
			<stop  offset="0" style="stop-color:#333333"/>
			<stop  offset="1" style="stop-color:#1A1A1A"/>
		</linearGradient>
		<path style="fill:url(#SVGID_15_);" d="M1839.3,843.8v168.4h49.2c11.8,0,22.5-2.1,32-5.8v-158c-9.2-3-19.7-4.7-31.5-4.7H1839.3z"
			/>
		<linearGradient id="SVGID_17_" gradientUnits="userSpaceOnUse" x1="1415.4318" y1="1585.0397" x2="-84.5682" y2="85.0396">
			<stop  offset="0" style="stop-color:#333333"/>
			<stop  offset="1" style="stop-color:#1A1A1A"/>
		</linearGradient>
		<path style="fill:url(#SVGID_17_);" d="M120.5,235c0-13.9-14.4-20.9-48.2-27.3c-21.8-4.1-47.9-8.7-71.9-18v42.4
			c22.7,14.2,50.6,23.7,82.1,23.7C102.1,255.8,120.5,248.9,120.5,235z"/>
		<linearGradient id="SVGID_19_" gradientUnits="userSpaceOnUse" x1="1737.5901" y1="1262.8813" x2="237.5901" y2="-237.1186">
			<stop  offset="0" style="stop-color:#333333"/>
			<stop  offset="1" style="stop-color:#1A1A1A"/>
		</linearGradient>
		<polygon style="fill:url(#SVGID_19_);" points="1491.9,991.9 1491.9,1080 1565.6,1080 1529.3,991.9 		"/>
		<linearGradient id="SVGID_20_" gradientUnits="userSpaceOnUse" x1="1588.8579" y1="1411.6135" x2="88.8579" y2="-88.3865">
			<stop  offset="0" style="stop-color:#333333"/>
			<stop  offset="1" style="stop-color:#1A1A1A"/>
		</linearGradient>
		<polygon class="st27" points="683.7,589.6 764.9,589.6 724.3,463.9 		"/>
		<linearGradient id="SVGID_21_" gradientUnits="userSpaceOnUse" x1="1710.4716" y1="1289.9999" x2="210.4716" y2="-210.0001">
			<stop  offset="0" style="stop-color:#333333"/>
			<stop  offset="1" style="stop-color:#1A1A1A"/>
		</linearGradient>
		<path class="st28" d="M1888.5,749.7c11,0,21.6,0.7,32,2V0H1395c15.6,7.4,30.1,16.8,43.4,28l-55.4,76.5
			c-29.7-23.5-68.2-35.3-95.3-35.3c-25.6,0-31.3,9.6-31.3,18.7c0,13.9,13.8,18.7,50.2,25.1c56.4,10.2,139.9,27.3,139.9,109.6
			c0,78.6-55.9,124-147.6,124c-72.8,0-122.5-22.5-158.9-56.7l53.8-80.2c25.6,25.7,64.1,46,110.2,46c19.5,0,37.9-7,37.9-20.9
			c0-13.9-14.4-20.9-48.2-27.3c-56.4-10.7-142.5-24.6-142.5-113.9c0-37.1,18.2-72.3,54-93.8h-70.9v77.8h-91.2v262.5H939.6V77.8
			h-91.8V0h-89.6l120.3,340.3H766.4l-13.3-46H621.8l-13.3,46H496.3L616.6,0H527v77.8h-91.2v262.5H332.2V77.8h-91.8V0h-67
			c15.6,7.4,30.1,16.8,43.4,28l-55.4,76.5C131.8,81,93.4,69.2,66.2,69.2c-25.6,0-31.3,9.6-31.3,18.7c0,13.9,13.8,18.7,50.2,25.1
			c56.4,10.2,139.9,27.3,139.9,109.6c0,78.6-55.9,124-147.6,124c-29.2,0-54.6-3.6-77-10.1V1080h290V749.7H498
			c70.7,0,101.4,49.2,101.4,90.9c0,44.4-25.1,74.3-58.4,81.8c36.9,5.9,65.1,41.2,65.1,87.2c0,26.5-9.2,52.2-28.1,70.5h127.7
			c-46.8-32-76.6-85.5-76.6-151.8c0-109.6,81.5-184.5,187-184.5s187,74.9,187,184.5c0,66.2-29.8,119.8-76.6,151.8h70.5l116.7-330.3
			H1244l116.7,330.3h27.7V749.7h182.4c79.9,0,123,55.6,123,122.4c0,61.5-34.3,94.1-61.5,108l49.1,99.9h54.4V749.7H1888.5z
			 M345.8,725.4H185.9V368.7h159.3c112.3,0,195.7,64.2,195.7,178C540.9,660.7,457.5,725.4,345.8,725.4z M806.6,725.4l-13.9-46H655.9
			l-13.9,46H524.9l131.5-356.6h135.8l131.5,356.6H806.6z M1081.5,731.8c-75.9,0-127.8-22.5-165.7-56.7l56.1-80.2
			c26.7,25.7,66.8,46,115,46c20.3,0,39.6-7,39.6-20.9s-15-20.9-50.3-27.3c-58.8-10.7-148.6-24.6-148.6-113.9
			c0-60.4,50.3-115.5,148.1-115.5c58.3,0,110.7,16.6,151.3,49.7l-57.7,76.5c-31-23.5-71.1-35.3-99.4-35.3
			c-26.7,0-32.6,9.6-32.6,18.7c0,13.9,14.4,18.7,52.4,25.1c58.8,10.2,146,27.3,146,109.6C1235.4,686.3,1177.2,731.8,1081.5,731.8z
			 M1614.5,725.4h-108V589h-127.8v136.3h-108V368.7h108v126.2h127.8V368.7h108V725.4z"/>
		<linearGradient id="SVGID_22_" gradientUnits="userSpaceOnUse" x1="1396.7544" y1="1603.717" x2="-103.2456" y2="103.7171">
			<stop  offset="0" style="stop-color:#333333"/>
			<stop  offset="1" style="stop-color:#1A1A1A"/>
		</linearGradient>
		<path class="st29" d="M345.8,462.8h-51.9v168.4h51.3c54,0,86.1-39.6,86.1-84.5C431.3,498.7,403.5,462.8,345.8,462.8z"/>
	</g>
</g>
</svg>
